<?xml version="1.0" encoding="utf-8" ?><svg xmlns="http://www.w3.org/2000/svg" xmlns:xlink="http://www.w3.org/1999/xlink" width="256" height="256" viewBox="0 0 256 256"><defs><linearGradient id="gradient_0" gradientUnits="userSpaceOnUse" x1="132.29439" y1="448.52744" x2="427.33084" y2="180.36348"><stop offset="0" stop-color="#A1C5EC"/><stop offset="1" stop-color="#F3FAF5"/></linearGradient></defs><path fill="url(#gradient_0)" transform="scale(0.5 0.5)" d="M210.283 90.901C245.307 52.4492 306.739 58.5215 332.835 103.216C346.006 125.775 347.651 149.38 341.087 174.06L341.262 174.322C341.568 174.294 346.736 166.798 353.933 170.229C361.184 169.943 370.03 170.229 377.453 170.227L394.2 170.224C406.555 170.227 424.479 170.968 431.154 183.98C439.877 194.437 438.383 213.144 438.396 226.238L438.135 271.25C438.05 279.344 438.889 290.185 438.384 298.109C438.195 301.556 438.352 305.422 438.378 308.917L438.403 398.613C438.433 419.844 430.228 440.29 405.783 442.571C400.55 443.059 394.654 442.844 389.346 442.842L154.336 442.846C148.836 442.848 143.152 443.03 137.693 442.481C121.315 440.833 107.718 426.668 106.238 410.371C105.842 406.014 106.004 401.247 106.007 396.842L106.041 226.368C106.047 224.863 105.885 220.924 106.018 219.83C104.641 216.426 98.8671 210.51 96.193 207.051C27.9066 117.906 128.816 28.1419 199.304 80.6879C203.415 83.753 206.306 87.4865 210.067 90.7187L210.283 90.901Z"/><defs><linearGradient id="gradient_1" gradientUnits="userSpaceOnUse" x1="203.5015" y1="295.62143" x2="212.02061" y2="63.804981"><stop offset="0" stop-color="#5F8EE7"/><stop offset="1" stop-color="#7DCEF4"/></linearGradient></defs><path fill="url(#gradient_1)" transform="scale(0.5 0.5)" d="M210.283 90.901C245.307 52.4492 306.739 58.5215 332.835 103.216C346.006 125.775 347.651 149.38 341.087 174.06C340.343 176 339.881 177.634 339.549 179.699C338.605 181.073 337.903 182.766 337.206 184.285C316.317 229.83 266.572 264.451 225.394 290.255C208.651 300.764 203.65 296.542 187.977 286.843C159.656 269.317 133.061 247.915 110.24 223.626C108.868 222.167 107.75 220.854 106.018 219.83C104.641 216.426 98.8671 210.51 96.193 207.051C27.9066 117.906 128.816 28.1419 199.304 80.6879C203.415 83.753 206.306 87.4865 210.067 90.7187L210.283 90.901Z"/><defs><linearGradient id="gradient_2" gradientUnits="userSpaceOnUse" x1="211.23227" y1="212.43474" x2="208.43256" y2="150.42867"><stop offset="0" stop-color="#85CEF2"/><stop offset="1" stop-color="#E5ECF2"/></linearGradient></defs><path fill="url(#gradient_2)" transform="scale(0.5 0.5)" d="M219.084 153.404C222.223 149.33 226.047 148.387 230.917 149.385C236.618 151.969 244.641 165.528 247.912 171.252C255.21 171.236 264.871 170.681 271.876 172.059C279.741 173.606 283.372 185.357 276.695 190.545C271.511 195.295 249.37 193.495 242.035 193.421C235.315 193.353 230.968 183.768 228.104 178.53C223.641 185.961 219.628 193.484 215.176 201.162C211.264 207.91 207.034 217.292 197.265 211.997C193.129 209.755 184.258 193.185 181.266 188.608C173.924 195.889 162.91 193.39 152.813 193.35C135.782 193.282 137.649 173.969 147.071 171.883C154.137 170.318 163.732 171.757 171.358 171.252C186.809 149.35 193.942 164.688 202.632 181.616C204.859 177.512 216.377 156.313 219.084 153.404Z"/><path fill="white" transform="scale(0.5 0.5)" d="M219.084 153.404C222.223 149.33 226.047 148.387 230.917 149.385C227.346 149.729 220.808 154.008 219.084 153.404Z"/><path fill="white" transform="scale(0.5 0.5)" d="M431.154 183.98C439.877 194.437 438.383 213.144 438.396 226.238L438.135 271.25C438.05 279.344 438.889 290.185 438.384 298.109C437.296 292.909 437.617 282.531 437.627 276.781L437.707 216.055C437.685 209.672 436.967 204.592 436.822 198.748C436.685 193.236 431.068 185.103 431.154 183.98Z"/><path fill="white" transform="scale(0.5 0.5)" d="M341.087 174.06L341.262 174.322C341.568 174.294 346.736 166.798 353.933 170.229L353.492 170.246C352.433 170.28 347.029 169.961 346.423 170.76C344.503 173.294 340.122 177.981 339.868 179.677L339.549 179.699C339.881 177.634 340.343 176 341.087 174.06Z"/><defs><linearGradient id="gradient_3" gradientUnits="userSpaceOnUse" x1="293.55991" y1="381.008" x2="395.63904" y2="317.5177"><stop offset="0" stop-color="#9DA8EF"/><stop offset="1" stop-color="#D6DEF5"/></linearGradient></defs><path fill="url(#gradient_3)" transform="scale(0.5 0.5)" d="M339.202 288.673C372.66 285.715 402.149 310.518 404.969 343.988C407.789 377.458 382.865 406.844 349.384 409.526C316.097 412.193 286.918 387.445 284.115 354.17C281.311 320.894 305.938 291.614 339.202 288.673Z"/><defs><linearGradient id="gradient_4" gradientUnits="userSpaceOnUse" x1="313.16049" y1="367.64233" x2="377.56161" y2="326.78397"><stop offset="0" stop-color="#DEE0F0"/><stop offset="1" stop-color="#FFFFFD"/></linearGradient></defs><path fill="url(#gradient_4)" transform="scale(0.5 0.5)" d="M336.34 309.466C360.623 308.513 361.025 307.471 360.803 331.997C370.721 331.97 385.488 328.708 385.123 342.478C384.98 347.911 387.745 360.883 379.613 361.85C373.522 362.575 367.001 362.042 360.803 362.035C360.805 369.446 363.166 382.38 355.042 385.057C328.637 387.174 330.7 385.035 330.721 361.499C313.776 361.569 305.499 366.139 305.258 347.401C304.998 327.234 313.304 331.953 330.721 331.997C330.688 325.026 328.442 311.72 336.34 309.466Z"/><defs><linearGradient id="gradient_5" gradientUnits="userSpaceOnUse" x1="153.56462" y1="377.88824" x2="214.44911" y2="334.53003"><stop offset="0" stop-color="#5B9CEE"/><stop offset="1" stop-color="#82E3F0"/></linearGradient></defs><path fill="url(#gradient_5)" transform="scale(0.5 0.5)" d="M148.649 345.736C149.933 345.539 154 345.715 155.535 345.723L198.374 345.731C203.985 345.731 209.554 345.685 215.186 345.837C230.678 345.909 233.14 362.519 219.084 367.583C214.232 367.397 207.851 367.592 202.883 367.59L168.937 367.585C163.067 367.586 157.118 367.784 151.266 367.561C138.404 367.072 135.808 348.492 148.649 345.736Z"/><path fill="#7C9EF7" transform="scale(0.5 0.5)" d="M151.098 385.561L183.64 385.554C187.43 385.554 197.268 385.158 200.48 385.873C212.329 388.512 212.178 406.784 198.063 407.798L164.815 407.803C159.618 407.804 153.397 408.079 148.316 407.542C136.949 405.848 134.859 386.399 151.098 385.561Z"/></svg>